<?xml version="1.0" encoding="utf-8"?>
<!-- Generator: Adobe Illustrator 27.5.0, SVG Export Plug-In . SVG Version: 6.00 Build 0)  -->
<svg version="1.1" xmlns="http://www.w3.org/2000/svg" xmlns:xlink="http://www.w3.org/1999/xlink" x="0px" y="0px"
	 viewBox="0 0 500 500" style="enable-background:new 0 0 500 500;" xml:space="preserve">
<g id="BACKGROUND">
	<rect style="fill:#0A1249;" width="500" height="500"/>
</g>
<g id="OBJECTS">
	<g>
		<g>
			<path style="fill:#FFFFFF;" d="M317.11,135.004c-64.192-37.062-146.275-15.068-183.337,49.125
				c-37.062,64.192-15.068,146.275,49.125,183.337c64.192,37.062,146.275,15.068,183.337-49.125
				C403.296,254.148,381.302,172.066,317.11,135.004z M221.832,300.029c-26.948-15.559-36.182-50.017-20.623-76.966
				c15.559-26.948,50.018-36.182,76.966-20.623c26.948,15.559,36.182,50.017,20.623,76.966
				C283.239,306.355,248.781,315.588,221.832,300.029z"/>
			<path style="fill:#D7D3EF;" d="M361.904,315.84c35.624-61.702,14.408-140.883-47.294-176.506
				c-20.295-11.717-42.484-17.286-64.389-17.286c-44.692,0-88.212,23.173-112.118,64.58c-17.257,29.89-21.841,64.71-12.909,98.048
				c8.933,33.338,30.313,61.201,60.203,78.458c29.891,17.256,64.713,21.842,98.048,12.908
				C316.784,367.111,344.647,345.73,361.904,315.84z M249.904,312.604c-10.63,0.001-21.12-2.787-30.572-8.245
				c-14.19-8.192-24.34-21.421-28.581-37.247c-4.241-15.827-2.065-32.358,6.128-46.548c8.192-14.19,21.421-24.34,37.248-28.582
				c15.828-4.24,32.359-2.065,46.548,6.129c29.293,16.912,39.365,54.503,22.453,83.796c-8.192,14.19-21.421,24.341-37.248,28.581
				C260.596,311.904,255.232,312.604,249.904,312.604z"/>
			<path style="fill:#9F9BC4;" d="M120.762,253.453c-0.44-23.218,5.431-46.195,17.341-66.824
				c23.906-41.407,67.426-64.58,112.118-64.58c21.904,0,44.094,5.568,64.389,17.286c42.081,24.295,65.323,68.851,64.553,114.305
				c-0.793-43.865-23.869-86.291-64.553-109.779c-20.295-11.717-42.484-17.286-64.389-17.286
				c-44.692,0-88.212,23.173-112.118,64.581C126.968,210.442,121.118,231.783,120.762,253.453z M190.751,271.638
				c4.241,15.826,14.391,29.055,28.581,37.247c9.452,5.458,19.942,8.246,30.572,8.245c5.328,0,10.692-0.7,15.976-2.116
				c15.827-4.24,29.056-14.391,37.248-28.581c5.964-10.33,8.558-21.691,8.151-32.815c-0.359,9.654-2.994,19.357-8.151,28.289
				c-8.192,14.19-21.421,24.341-37.248,28.581c-5.284,1.416-10.648,2.116-15.976,2.116c-10.63,0.001-21.12-2.787-30.572-8.245
				c-14.19-8.192-24.34-21.421-28.581-37.247c-1.226-4.575-1.898-9.209-2.062-13.828
				C188.45,259.391,189.124,265.566,190.751,271.638z"/>
		</g>
		<g>
			<g>
				
					<ellipse transform="matrix(0.7071 -0.7071 0.7071 0.7071 -104.4255 250.3643)" style="fill:#FFE443;" cx="250.004" cy="251.235" rx="45.138" ry="45.138"/>
				
					<ellipse transform="matrix(0.7071 -0.7071 0.7071 0.7071 -104.4255 250.3643)" style="fill:#F99716;" cx="250.004" cy="251.235" rx="38.993" ry="38.993"/>
				<path style="fill:#C95311;" d="M250.004,216.847c20.762,0,37.727,16.228,38.919,36.69c0.044-0.762,0.073-1.529,0.073-2.302
					c0-21.535-17.458-38.993-38.993-38.993c-21.535,0-38.993,17.458-38.993,38.993c0,0.774,0.029,1.54,0.073,2.302
					C212.276,233.075,229.242,216.847,250.004,216.847z"/>
			</g>
			<g>
				<g>
					<path style="fill:#FFFFFF;" d="M267.155,265.781h-25.047c-1.171,0-2.119-0.949-2.119-2.12l0,0c0-1.17,0.949-2.119,2.119-2.119
						h25.047c1.17,0,2.119,0.949,2.119,2.119l0,0C269.275,264.832,268.326,265.781,267.155,265.781z"/>
					<path style="fill:#FFFFFF;" d="M267.155,257.497h-25.047c-1.171,0-2.119-0.949-2.119-2.12l0,0c0-1.17,0.949-2.119,2.119-2.119
						h25.047c1.17,0,2.119,0.949,2.119,2.119l0,0C269.275,256.548,268.326,257.497,267.155,257.497z"/>
					<path style="fill:#FFFFFF;" d="M267.155,249.212h-25.047c-1.171,0-2.119-0.949-2.119-2.119l0,0c0-1.17,0.949-2.119,2.119-2.119
						h25.047c1.17,0,2.119,0.949,2.119,2.119l0,0C269.275,248.263,268.326,249.212,267.155,249.212z"/>
					<path style="fill:#FFFFFF;" d="M267.155,240.927h-25.047c-1.171,0-2.119-0.949-2.119-2.119l0,0c0-1.17,0.949-2.119,2.119-2.119
						h25.047c1.17,0,2.119,0.949,2.119,2.119l0,0C269.275,239.978,268.326,240.927,267.155,240.927z"/>
					<path style="fill:#FFFFFF;" d="M234.496,265.781h-1.652c-1.171,0-2.119-0.949-2.119-2.12l0,0c0-1.17,0.949-2.119,2.119-2.119
						h1.652c1.171,0,2.119,0.949,2.119,2.119l0,0C236.615,264.832,235.666,265.781,234.496,265.781z"/>
					<path style="fill:#FFFFFF;" d="M234.496,257.497h-1.652c-1.171,0-2.119-0.949-2.119-2.12l0,0c0-1.17,0.949-2.119,2.119-2.119
						h1.652c1.171,0,2.119,0.949,2.119,2.119l0,0C236.615,256.548,235.666,257.497,234.496,257.497z"/>
					<path style="fill:#FFFFFF;" d="M234.496,249.212h-1.652c-1.171,0-2.119-0.949-2.119-2.119l0,0c0-1.17,0.949-2.119,2.119-2.119
						h1.652c1.171,0,2.119,0.949,2.119,2.119l0,0C236.615,248.263,235.666,249.212,234.496,249.212z"/>
					<path style="fill:#FFFFFF;" d="M234.496,240.927h-1.652c-1.171,0-2.119-0.949-2.119-2.119l0,0c0-1.17,0.949-2.119,2.119-2.119
						h1.652c1.171,0,2.119,0.949,2.119,2.119l0,0C236.615,239.978,235.666,240.927,234.496,240.927z"/>
				</g>
			</g>
		</g>
		<g>
			<g>
				<path style="fill:#B251F2;" d="M289.203,193.129c18.68,12.576,29.546,32.849,30.787,54.082h96.99
					c-1.371-54.71-29.6-107.476-79.273-138.093L289.203,193.129z"/>
				<path style="fill:#7B29AA;" d="M339.725,117.425l-42.76,74.063c15.496,12.197,25.766,30.225,28.384,49.822l85.469,0
					C407.699,190.977,381.544,145.404,339.725,117.425z"/>
				<path style="fill:#3C127F;" d="M299.048,193.212l40.677-70.455c40.337,26.987,66.093,70.345,70.668,118.552h0.426
					c-3.119-50.332-29.274-95.906-71.093-123.885l-42.76,74.063C297.674,192.046,298.36,192.63,299.048,193.212z"/>
			</g>
			<g>
				<text transform="matrix(1 0 0 1 323.9044 170.0828)" style="fill:#FFFFFF; font-family:'Montserrat-Bold'; font-size:12px;">STEP 4</text>
				<rect x="312.037" y="181.122" style="fill:none;" width="81.876" height="26.421"/>
				<text transform="matrix(1 0 0 1 318.0151 184.8313)"><tspan x="0" y="0" style="fill:#FFFFFF; font-family:'Montserrat-Light'; font-size:5px;">Lorem ipsum dolor sit amet, </tspan><tspan x="-4.723" y="6" style="fill:#FFFFFF; font-family:'Montserrat-Light'; font-size:5px;">consectetuer adipiscing elit, sed </tspan><tspan x="-3.268" y="12" style="fill:#FFFFFF; font-family:'Montserrat-Light'; font-size:5px;">diam nonummy nibh euismod </tspan><tspan x="2.415" y="18" style="fill:#FFFFFF; font-family:'Montserrat-Light'; font-size:5px;">tincidunt ut laoreet dolore </tspan></text>
				<g>
					<path style="fill:#FFFFFF;" d="M343.695,213.602v16.587H356.2v-16.587H343.695z M354.094,227.869H345.8v-1.434h8.294V227.869z
						 M354.094,224.365H345.8v-1.434h8.294V224.365z M354.094,220.861H345.8v-1.433h8.294V220.861z M354.094,217.357H345.8v-1.434
						h8.294V217.357z"/>
				</g>
			</g>
		</g>
		<g>
			<g>
				<path style="fill:#56ED7D;" d="M211.765,309.998c-19.104-12.408-30.294-32.77-31.722-54.158H83.047
					c1.565,54.865,30.132,107.702,80.244,138.119L211.765,309.998z"/>
				<path style="fill:#2DB568;" d="M161.251,385.689l42.71-73.975c-15.858-12.087-26.439-30.173-29.233-49.973l-85.497,0
					C92.545,312.283,119.04,357.884,161.251,385.689z"/>
				<path style="fill:#0D7236;" d="M174.728,261.74l-85.497,0c0.117,1.784,0.27,3.561,0.445,5.332l85.052,0
					c2.667,18.906,12.447,36.234,27.129,48.285l2.104-3.644C188.103,299.626,177.522,281.54,174.728,261.74z"/>
			</g>
			<g>
				<text transform="matrix(1 0 0 1 124.2382 281.3756)" style="fill:#FFFFFF; font-family:'Montserrat-Bold'; font-size:12px;">STEP 1</text>
				<rect x="105.512" y="296.373" style="fill:none;" width="81.876" height="26.421"/>
				<text transform="matrix(1 0 0 1 111.4904 300.0828)"><tspan x="0" y="0" style="fill:#FFFFFF; font-family:'Montserrat-Light'; font-size:5px;">Lorem ipsum dolor sit amet, </tspan><tspan x="-4.723" y="6" style="fill:#FFFFFF; font-family:'Montserrat-Light'; font-size:5px;">consectetuer adipiscing elit, sed </tspan><tspan x="-3.268" y="12" style="fill:#FFFFFF; font-family:'Montserrat-Light'; font-size:5px;">diam nonummy nibh euismod </tspan><tspan x="2.415" y="18" style="fill:#FFFFFF; font-family:'Montserrat-Light'; font-size:5px;">tincidunt ut laoreet dolore </tspan></text>
				<g>
					<path style="fill:#FFFFFF;" d="M160.575,346.862c-0.564,0-1.087,0.149-1.556,0.391l-3.244-5.192
						c0.832-0.624,1.378-1.61,1.378-2.73c0-1.89-1.532-3.422-3.422-3.422c-1.89,0-3.422,1.532-3.422,3.422
						c0,1.12,0.546,2.106,1.378,2.73l-3.244,5.192c-0.469-0.241-0.992-0.391-1.556-0.391c-1.89,0-3.422,1.532-3.422,3.422
						s1.532,3.422,3.422,3.422c1.792,0,3.245-1.382,3.393-3.135h6.901c0.148,1.754,1.601,3.135,3.393,3.135
						c1.89,0,3.422-1.532,3.422-3.422S162.465,346.862,160.575,346.862z M153.732,337.634c0.937,0,1.697,0.759,1.697,1.696
						c0,0.937-0.759,1.696-1.697,1.696c-0.937,0-1.696-0.759-1.696-1.696C152.035,338.393,152.795,337.634,153.732,337.634z
						 M146.888,351.98c-0.937,0-1.697-0.759-1.697-1.697c0-0.937,0.76-1.696,1.697-1.696c0.937,0,1.696,0.759,1.696,1.696
						C148.585,351.22,147.825,351.98,146.888,351.98z M157.182,349.997h-6.901c-0.084-1-0.59-1.874-1.349-2.443l3.244-5.192
						c0.469,0.241,0.992,0.391,1.556,0.391c0.564,0,1.087-0.149,1.556-0.39l3.244,5.192
						C157.773,348.123,157.267,348.996,157.182,349.997z M160.575,351.98c-0.937,0-1.696-0.759-1.696-1.697
						c0-0.937,0.76-1.696,1.696-1.696c0.937,0,1.696,0.759,1.696,1.696C162.272,351.22,161.512,351.98,160.575,351.98z"/>
				</g>
			</g>
		</g>
		<g>
			<g>
				<path style="fill:#FF6699;" d="M219.011,188.345c19.237-9.458,42.465-9.948,62.763,0.393l48.475-83.961
					c-51.397-28.189-111.439-26.51-159.736-0.434L219.011,188.345z"/>
				<path style="fill:#E0245A;" d="M178.715,106.748l42.749,74.043c18.545-7.48,39.495-7.36,57.894,0.331l42.709-73.974
					C276.882,84.493,224.143,84.347,178.715,106.748z"/>
				<path style="fill:#890B5C;" d="M319.66,111.316l2.407-4.169c-45.185-22.654-97.924-22.8-143.351-0.399l2.416,4.184
					C225.199,90.09,275.818,90.229,319.66,111.316z"/>
			</g>
			<g>
				<text transform="matrix(1 0 0 1 227.0079 111.316)" style="fill:#FFFFFF; font-family:'Montserrat-Bold'; font-size:12px;">STEP 3</text>
				<rect x="208.511" y="120.501" style="fill:none;" width="81.876" height="26.421"/>
				<text transform="matrix(1 0 0 1 214.4897 124.2104)"><tspan x="0" y="0" style="fill:#FFFFFF; font-family:'Montserrat-Light'; font-size:5px;">Lorem ipsum dolor sit amet, </tspan><tspan x="-4.723" y="6" style="fill:#FFFFFF; font-family:'Montserrat-Light'; font-size:5px;">consectetuer adipiscing elit, sed </tspan><tspan x="-3.268" y="12" style="fill:#FFFFFF; font-family:'Montserrat-Light'; font-size:5px;">diam nonummy nibh euismod </tspan><tspan x="2.415" y="18" style="fill:#FFFFFF; font-family:'Montserrat-Light'; font-size:5px;">tincidunt ut laoreet dolore </tspan></text>
				<g>
					<path style="fill:#FFFFFF;" d="M259.765,163.26v-12.361h-19.531v12.361h8.404v1.574h-2.975v2.346h8.671v-2.346h-2.975v-1.574
						H259.765z M243.225,153.395h13.55v7.37h-13.55V153.395z"/>
					<rect x="242.072" y="155.419" style="fill:#FFFFFF;" width="16.872" height="0.61"/>
					<rect x="242.072" y="158.13" style="fill:#FFFFFF;" width="16.872" height="0.61"/>
				</g>
			</g>
		</g>
		<g>
			<g>
				<path style="fill:#5B7AFC;" d="M310.721,286.29c-5.565,9.638-13.079,17.444-21.749,23.231l48.506,84.015
					c22.921-14.062,42.767-33.873,57.157-58.798c14.39-24.925,21.624-52.017,22.342-78.898h-97.012
					C319.288,266.242,316.285,276.652,310.721,286.29z"/>
				<path style="fill:#273DC1;" d="M410.799,261.741l-85.504,0c-1.335,9.688-4.508,18.916-9.464,27.5
					c-4.955,8.583-11.361,15.945-19.084,21.946l42.752,74.049c20.436-13.643,37.651-32.016,50.025-53.448
					C401.898,310.356,409.202,286.26,410.799,261.741z"/>
				<path style="fill:#231091;" d="M315.831,289.241c-4.955,8.583-11.361,15.945-19.084,21.946l2.092,3.624
					c6.788-5.674,12.493-12.447,16.991-20.237c4.956-8.584,8.129-17.812,9.464-27.5h85.057c0.176-1.775,0.331-3.552,0.447-5.332
					l-85.504,0C323.96,271.429,320.787,280.657,315.831,289.241z"/>
			</g>
			<g>
				<text transform="matrix(1 0 0 1 330.2497 281.3756)" style="fill:#FFFFFF; font-family:'Montserrat-Bold'; font-size:12px;">STEP 5</text>
				<rect x="312.037" y="296.373" style="fill:none;" width="81.876" height="26.421"/>
				<text transform="matrix(1 0 0 1 318.0151 300.0828)"><tspan x="0" y="0" style="fill:#FFFFFF; font-family:'Montserrat-Light'; font-size:5px;">Lorem ipsum dolor sit amet, </tspan><tspan x="-4.723" y="6" style="fill:#FFFFFF; font-family:'Montserrat-Light'; font-size:5px;">consectetuer adipiscing elit, sed </tspan><tspan x="-3.268" y="12" style="fill:#FFFFFF; font-family:'Montserrat-Light'; font-size:5px;">diam nonummy nibh euismod </tspan><tspan x="2.415" y="18" style="fill:#FFFFFF; font-family:'Montserrat-Light'; font-size:5px;">tincidunt ut laoreet dolore </tspan></text>
				<g>
					<g>
						<rect x="336.963" y="347.498" style="fill:#FFFFFF;" width="3.83" height="7.729"/>
						<rect x="341.78" y="343.547" style="fill:#FFFFFF;" width="3.83" height="11.68"/>
						<rect x="346.596" y="337.132" style="fill:#FFFFFF;" width="3.83" height="18.095"/>
					</g>
				</g>
			</g>
		</g>
		<g>
			<g>
				<path style="fill:#FFE443;" d="M189.286,216.18c5.668-9.818,13.362-17.729,22.237-23.546l-48.497-83.999
					c-23.131,14.08-43.16,33.993-57.654,59.097c-14.494,25.104-21.725,52.407-22.353,79.479l96.994,0
					C180.614,236.616,183.618,225.997,189.286,216.18z"/>
				<path style="fill:#F99716;" d="M89.174,241.31l85.464-0.001c1.284-9.901,4.482-19.325,9.537-28.08
					c5.055-8.756,11.617-16.237,19.549-22.299l-42.732-74.014c-20.654,13.681-38.04,32.166-50.511,53.767
					C98.011,192.284,90.695,216.583,89.174,241.31z"/>
				<path style="fill:#C95311;" d="M110.482,176.015c12.471-21.601,29.857-40.086,50.511-53.767l40.629,70.372
					c0.694-0.571,1.386-1.143,2.103-1.69l-42.732-74.014c-20.654,13.681-38.04,32.166-50.511,53.767
					c-12.472,21.602-19.787,45.9-21.308,70.628h0.427C91.784,218.431,98.909,196.061,110.482,176.015z"/>
			</g>
			<g>
				<text transform="matrix(1 0 0 1 128.5248 170.0828)" style="fill:#FFFFFF; font-family:'Montserrat-Bold'; font-size:12px;">STEP 2</text>
				<rect x="107.748" y="181.122" style="fill:none;" width="81.876" height="26.421"/>
				<text transform="matrix(1 0 0 1 113.7271 184.8313)"><tspan x="0" y="0" style="fill:#FFFFFF; font-family:'Montserrat-Light'; font-size:5px;">Lorem ipsum dolor sit amet, </tspan><tspan x="-4.723" y="6" style="fill:#FFFFFF; font-family:'Montserrat-Light'; font-size:5px;">consectetuer adipiscing elit, sed </tspan><tspan x="-3.268" y="12" style="fill:#FFFFFF; font-family:'Montserrat-Light'; font-size:5px;">diam nonummy nibh euismod </tspan><tspan x="2.415" y="18" style="fill:#FFFFFF; font-family:'Montserrat-Light'; font-size:5px;">tincidunt ut laoreet dolore </tspan></text>
				<path style="fill:#FFFFFF;" d="M147.463,214.315c-5.983,0-10.833,3.366-10.833,7.519c0,3.553,3.554,6.523,8.327,7.309
					l2.506,3.522v-3.312c5.983,0,10.833-3.366,10.833-7.519C158.295,217.682,153.445,214.315,147.463,214.315z M142.471,223.174
					c-0.706,0-1.278-0.572-1.278-1.278c0-0.706,0.572-1.278,1.278-1.278c0.706,0,1.278,0.572,1.278,1.278
					C143.749,222.602,143.177,223.174,142.471,223.174z M147.463,223.174c-0.706,0-1.278-0.572-1.278-1.278
					c0-0.706,0.572-1.278,1.278-1.278c0.706,0,1.278,0.572,1.278,1.278C148.74,222.602,148.168,223.174,147.463,223.174z
					 M152.454,223.174c-0.706,0-1.278-0.572-1.278-1.278c0-0.706,0.572-1.278,1.278-1.278c0.706,0,1.278,0.572,1.278,1.278
					C153.732,222.602,153.16,223.174,152.454,223.174z"/>
			</g>
		</g>
	</g>
	<g>
		<text transform="matrix(1 0 0 1 144.449 53.0248)" style="fill:#FFFFFF; font-family:'Montserrat-Bold'; font-size:17.7072px;">INFOGRAPHIC STEPS</text>
	</g>
	<rect x="89.201" y="418.449" style="fill:none;" width="321.598" height="26.421"/>
	<text transform="matrix(1 0 0 1 95.9942 424.3857)"><tspan x="0" y="0" style="fill:#FFFFFF; font-family:'Montserrat-Light'; font-size:8px;">Lorem ipsum dolor sit amet, consectetuer adipiscing elit, sed diam nonummy </tspan><tspan x="-1.023" y="9.6" style="fill:#FFFFFF; font-family:'Montserrat-Light'; font-size:8px;">nibh euismod tincidunt ut laoreet dolore magna aliquam erat volutpat. Ut wisi </tspan><tspan x="-2.204" y="19.2" style="fill:#FFFFFF; font-family:'Montserrat-Light'; font-size:8px;">enim ad minim veniam, quis nostrud exerci tation ullamcorper suscipit lobortis </tspan></text>
</g>
<g id="DESIGNED_BY_FREEPIK">
	<g>
		<g id="XMLID_1_">
			<g id="XMLID_20_">
				<path id="XMLID_28_" style="fill:#F7FAFB;" d="M260.104,465.465c-0.432,0.443-0.803,0.931-1.108,1.453l-0.465-0.241
					c-0.067-0.298-0.349-0.503-0.659-0.466c-0.331,0.039-0.568,0.339-0.529,0.67c0.039,0.331,0.339,0.568,0.67,0.529
					c0.066-0.008,0.127-0.026,0.184-0.052l0.451,0.234c-0.251,0.554-0.433,1.139-0.539,1.744l0.747,0.132
					c0.23-1.306,0.85-2.507,1.792-3.473L260.104,465.465z"/>
				<path id="XMLID_27_" style="fill:#F7FAFB;" d="M265.592,463.163c-0.171,0-0.341,0.006-0.51,0.017l-0.074-0.626
					c0.188-0.149,0.296-0.389,0.266-0.645c-0.046-0.393-0.402-0.674-0.795-0.628c-0.393,0.046-0.674,0.402-0.628,0.795
					c0.03,0.254,0.189,0.461,0.404,0.564l0.074,0.624c-0.714,0.116-1.403,0.332-2.06,0.646l0.327,0.684
					c0.934-0.447,1.942-0.673,2.995-0.673c0.496,0,0.993,0.053,1.475,0.158l0.161-0.741
					C266.692,463.222,266.142,463.163,265.592,463.163z"/>
				<path id="XMLID_26_" style="fill:#F7FAFB;" d="M272.194,465.711c0.331-0.04,0.566-0.341,0.526-0.672
					c-0.04-0.331-0.341-0.566-0.672-0.526c-0.309,0.038-0.535,0.304-0.53,0.609l-0.416,0.363c-0.418-0.43-0.889-0.813-1.408-1.139
					l-0.404,0.641c1.134,0.715,2.021,1.726,2.563,2.925l0.69-0.313c-0.251-0.554-0.567-1.072-0.942-1.545l0.402-0.351
					C272.065,465.716,272.129,465.719,272.194,465.711z"/>
				<path id="XMLID_25_" style="fill:#F7FAFB;" d="M265.044,473.372c-0.386,0.023-0.775,0.035-1.157,0.035
					c-0.88,0-1.733-0.061-2.478-0.179c-0.39-0.062-0.846-0.155-1.27-0.292c1.046,1.861,3.069,3.125,5.388,3.125
					c2.855,0,5.262-1.916,5.95-4.504c-0.682,0.449-1.505,0.825-2.459,1.123C267.839,473.047,266.463,473.286,265.044,473.372z"/>
				<path id="XMLID_21_" style="fill:#F7FAFB;" d="M265.592,464.68c-3.352,0-6.08,2.666-6.08,5.943c0,0.426,0.046,0.849,0.137,1.261
					c0.673,0.483,2.706,0.89,5.348,0.731c2.879-0.173,5.297-0.957,6.672-2.159c-0.006-0.195-0.021-0.39-0.045-0.582
					C271.244,466.913,268.65,464.68,265.592,464.68z M263.432,471.194c-1.02,0-1.85-0.83-1.85-1.85c0-1.02,0.83-1.85,1.85-1.85
					c1.02,0,1.85,0.83,1.85,1.85C265.282,470.365,264.452,471.194,263.432,471.194z M268.17,470.286c-0.75,0-1.36-0.61-1.36-1.36
					s0.61-1.361,1.36-1.361c0.75,0,1.361,0.61,1.361,1.361S268.92,470.286,268.17,470.286z"/>
			</g>
			<path id="XMLID_18_" style="fill:#F7FAFB;" d="M281.595,466.547c-0.295-0.116-0.805-0.309-1.382-0.237
				c-0.551,0.069-0.844,0.341-0.844,1.007v0.866h2.228v1.717h-2.228v5.455h-1.932v-5.455h-1.34v-1.717h1.34v-0.888
				c0-1.68,0.896-2.783,2.568-2.783c0.643,0,1.157,0.122,1.59,0.308L281.595,466.547z"/>
			<path id="XMLID_16_" style="fill:#F7FAFB;" d="M286.298,469.879c-0.177-0.03-0.358-0.046-0.526-0.046
				c-0.896,0-1.51,0.548-1.51,1.614v3.908h-1.932v-7.172h1.873v0.785c0.451-0.673,1.14-0.977,2.021-0.977
				c0.414,0,0.848,0.128,1.094,0.337L286.298,469.879z"/>
			<path id="XMLID_13_" style="fill:#F7FAFB;" d="M293.965,471.757c0,0.222-0.015,0.489-0.037,0.651h-5.085
				c0.207,1.036,0.933,1.488,1.843,1.488c0.622,0,1.295-0.252,1.813-0.688l1.133,1.243c-0.814,0.748-1.85,1.088-3.057,1.088
				c-2.198,0-3.723-1.495-3.723-3.753c0-2.258,1.48-3.797,3.627-3.797C292.544,467.99,293.958,469.522,293.965,471.757z
				 M288.851,471.091h3.175c-0.177-0.918-0.733-1.436-1.562-1.436C289.554,469.655,289.021,470.203,288.851,471.091z"/>
			<path id="XMLID_10_" style="fill:#F7FAFB;" d="M301.618,471.757c0,0.222-0.015,0.489-0.037,0.651h-5.085
				c0.207,1.036,0.933,1.488,1.843,1.488c0.622,0,1.295-0.252,1.814-0.688l1.132,1.243c-0.814,0.748-1.85,1.088-3.057,1.088
				c-2.198,0-3.723-1.495-3.723-3.753c0-2.258,1.48-3.797,3.627-3.797C300.197,467.99,301.611,469.522,301.618,471.757z
				 M296.504,471.091h3.175c-0.178-0.918-0.733-1.436-1.562-1.436C297.207,469.655,296.674,470.203,296.504,471.091z"/>
			<path id="XMLID_7_" style="fill:#F7FAFB;" d="M309.964,471.764c0,2.154-1.495,3.775-3.471,3.775
				c-0.962,0-1.643-0.378-2.109-0.933v3.708h-1.924v-10.133h1.887v0.792c0.466-0.585,1.155-0.984,2.139-0.984
				C308.469,467.99,309.964,469.61,309.964,471.764z M304.287,471.764c0,1.132,0.748,1.976,1.843,1.976
				c1.14,0,1.85-0.881,1.85-1.976c0-1.095-0.71-1.976-1.85-1.976C305.035,469.788,304.287,470.632,304.287,471.764z"/>
			<path id="XMLID_4_" style="fill:#F7FAFB;" d="M313.068,465.836c0,0.696-0.54,1.229-1.236,1.229c-0.696,0-1.229-0.533-1.229-1.229
				c0-0.696,0.533-1.243,1.229-1.243C312.527,464.592,313.068,465.14,313.068,465.836z M312.809,475.354h-1.932v-7.172h1.932
				V475.354z"/>
			<path id="XMLID_2_" style="fill:#F7FAFB;" d="M316.032,470.736l2.701-2.554h2.368l-3.479,3.375l3.501,3.797h-2.376l-2.716-2.901
				v2.901H314.1v-10.658h1.932V470.736z"/>
		</g>
		<g>
			<path style="fill:#F7FAFB;" d="M184.412,475.289v-1.055c-0.527,0.718-1.391,1.23-2.387,1.23c-1.846,0-3.149-1.406-3.149-3.706
				c0-2.256,1.289-3.721,3.149-3.721c0.952,0,1.816,0.469,2.387,1.245v-3.765h1.099v9.77H184.412z M184.412,473.37v-3.208
				c-0.395-0.615-1.245-1.143-2.124-1.143c-1.421,0-2.27,1.172-2.27,2.739c0,1.567,0.85,2.724,2.27,2.724
				C183.168,474.483,184.017,473.986,184.412,473.37z"/>
			<path style="fill:#F7FAFB;" d="M186.932,471.744c0-2.051,1.465-3.706,3.486-3.706c2.139,0,3.398,1.67,3.398,3.794v0.279h-5.727
				c0.088,1.333,1.025,2.446,2.549,2.446c0.805,0,1.626-0.322,2.182-0.894l0.527,0.718c-0.703,0.703-1.655,1.084-2.812,1.084
				C188.44,475.465,186.932,473.956,186.932,471.744z M190.403,468.947c-1.509,0-2.256,1.274-2.314,2.358h4.643
				C192.718,470.25,192.015,468.947,190.403,468.947z"/>
			<path style="fill:#F7FAFB;" d="M194.607,474.351l0.571-0.791c0.469,0.542,1.362,1.011,2.329,1.011c1.084,0,1.67-0.513,1.67-1.216
				c0-1.714-4.38-0.659-4.38-3.281c0-1.098,0.952-2.036,2.636-2.036c1.201,0,2.051,0.454,2.622,1.026l-0.513,0.762
				c-0.424-0.513-1.201-0.894-2.109-0.894c-0.967,0-1.567,0.483-1.567,1.113c0,1.552,4.38,0.527,4.38,3.281
				c0,1.187-0.952,2.138-2.783,2.138C196.306,475.465,195.325,475.113,194.607,474.351z"/>
			<path style="fill:#F7FAFB;" d="M201.477,466.471c0-0.41,0.337-0.747,0.732-0.747c0.41,0,0.747,0.337,0.747,0.747
				c0,0.41-0.337,0.732-0.747,0.732C201.814,467.203,201.477,466.881,201.477,466.471z M201.667,475.289v-7.075h1.099v7.075H201.667
				z"/>
			<path style="fill:#F7FAFB;" d="M204.582,477.105l0.556-0.82c0.586,0.703,1.289,0.967,2.3,0.967c1.172,0,2.27-0.571,2.27-2.124
				v-1.011c-0.513,0.718-1.377,1.26-2.373,1.26c-1.845,0-3.149-1.377-3.149-3.662c0-2.27,1.289-3.677,3.149-3.677
				c0.952,0,1.802,0.469,2.373,1.245v-1.069h1.098v6.87c0,2.344-1.641,3.076-3.369,3.076
				C206.237,478.16,205.417,477.926,204.582,477.105z M209.709,473.253v-3.091c-0.381-0.615-1.23-1.143-2.109-1.143
				c-1.421,0-2.27,1.128-2.27,2.695c0,1.553,0.849,2.695,2.27,2.695C208.478,474.41,209.328,473.868,209.709,473.253z"/>
			<path style="fill:#F7FAFB;" d="M217.413,475.289v-4.629c0-1.245-0.63-1.641-1.582-1.641c-0.865,0-1.685,0.527-2.095,1.099v5.17
				h-1.099v-7.075h1.099v1.025c0.498-0.586,1.464-1.201,2.519-1.201c1.48,0,2.256,0.747,2.256,2.285v4.966H217.413z"/>
			<path style="fill:#F7FAFB;" d="M219.932,471.744c0-2.051,1.465-3.706,3.486-3.706c2.139,0,3.398,1.67,3.398,3.794v0.279h-5.727
				c0.088,1.333,1.025,2.446,2.549,2.446c0.806,0,1.626-0.322,2.183-0.894l0.527,0.718c-0.703,0.703-1.655,1.084-2.812,1.084
				C221.441,475.465,219.932,473.956,219.932,471.744z M223.404,468.947c-1.509,0-2.256,1.274-2.314,2.358h4.643
				C225.718,470.25,225.015,468.947,223.404,468.947z"/>
			<path style="fill:#F7FAFB;" d="M233.35,475.289v-1.055c-0.527,0.718-1.392,1.23-2.388,1.23c-1.846,0-3.149-1.406-3.149-3.706
				c0-2.256,1.289-3.721,3.149-3.721c0.952,0,1.817,0.469,2.388,1.245v-3.765h1.098v9.77H233.35z M233.35,473.37v-3.208
				c-0.396-0.615-1.245-1.143-2.124-1.143c-1.421,0-2.27,1.172-2.27,2.739c0,1.567,0.849,2.724,2.27,2.724
				C232.105,474.483,232.954,473.986,233.35,473.37z"/>
			<path style="fill:#F7FAFB;" d="M239.692,475.289v-9.77h1.098v3.765c0.572-0.776,1.421-1.245,2.388-1.245
				c1.845,0,3.149,1.465,3.149,3.721c0,2.299-1.304,3.706-3.149,3.706c-0.996,0-1.86-0.513-2.388-1.23v1.055H239.692z
				 M242.9,474.483c1.436,0,2.285-1.157,2.285-2.724c0-1.568-0.85-2.739-2.285-2.739c-0.864,0-1.728,0.527-2.109,1.143v3.208
				C241.171,473.986,242.036,474.483,242.9,474.483z"/>
			<path style="fill:#F7FAFB;" d="M247.528,477.061c0.161,0.073,0.425,0.117,0.601,0.117c0.483,0,0.805-0.161,1.055-0.747
				l0.469-1.069l-2.959-7.148h1.187l2.358,5.8l2.344-5.8h1.201l-3.545,8.51c-0.425,1.025-1.143,1.421-2.08,1.435
				c-0.234,0-0.601-0.044-0.805-0.103L247.528,477.061z"/>
		</g>
	</g>
</g>
</svg>
