<svg width="982" height="1400" viewBox="0 0 982 1400" fill="none" xmlns="http://www.w3.org/2000/svg">
<path d="M232.182 80H220.909C220.242 76.7576 219.076 73.9091 217.409 71.4545C215.773 69 213.773 66.9394 211.409 65.2727C209.076 63.5758 206.485 62.303 203.636 61.4545C200.788 60.6061 197.818 60.1818 194.727 60.1818C189.091 60.1818 183.985 61.6061 179.409 64.4545C174.864 67.303 171.242 71.5 168.545 77.0455C165.879 82.5909 164.545 89.3939 164.545 97.4545C164.545 105.515 165.879 112.318 168.545 117.864C171.242 123.409 174.864 127.606 179.409 130.455C183.985 133.303 189.091 134.727 194.727 134.727C197.818 134.727 200.788 134.303 203.636 133.455C206.485 132.606 209.076 131.348 211.409 129.682C213.773 127.985 215.773 125.909 217.409 123.455C219.076 120.97 220.242 118.121 220.909 114.909H232.182C231.333 119.667 229.788 123.924 227.545 127.682C225.303 131.439 222.515 134.636 219.182 137.273C215.848 139.879 212.106 141.864 207.955 143.227C203.833 144.591 199.424 145.273 194.727 145.273C186.788 145.273 179.727 143.333 173.545 139.455C167.364 135.576 162.5 130.061 158.955 122.909C155.409 115.758 153.636 107.273 153.636 97.4545C153.636 87.6364 155.409 79.1515 158.955 72C162.5 64.8485 167.364 59.3333 173.545 55.4545C179.727 51.5758 186.788 49.6364 194.727 49.6364C199.424 49.6364 203.833 50.3182 207.955 51.6818C212.106 53.0455 215.848 55.0455 219.182 57.6818C222.515 60.2879 225.303 63.4697 227.545 67.2273C229.788 70.9545 231.333 75.2121 232.182 80ZM277.307 145.455C271.004 145.455 265.473 143.955 260.716 140.955C255.989 137.955 252.292 133.758 249.625 128.364C246.989 122.97 245.67 116.667 245.67 109.455C245.67 102.182 246.989 95.8333 249.625 90.4091C252.292 84.9848 255.989 80.7727 260.716 77.7727C265.473 74.7727 271.004 73.2727 277.307 73.2727C283.61 73.2727 289.125 74.7727 293.852 77.7727C298.61 80.7727 302.307 84.9848 304.943 90.4091C307.61 95.8333 308.943 102.182 308.943 109.455C308.943 116.667 307.61 122.97 304.943 128.364C302.307 133.758 298.61 137.955 293.852 140.955C289.125 143.955 283.61 145.455 277.307 145.455ZM277.307 135.818C282.095 135.818 286.034 134.591 289.125 132.136C292.216 129.682 294.504 126.455 295.989 122.455C297.473 118.455 298.216 114.121 298.216 109.455C298.216 104.788 297.473 100.439 295.989 96.4091C294.504 92.3788 292.216 89.1212 289.125 86.6364C286.034 84.1515 282.095 82.9091 277.307 82.9091C272.519 82.9091 268.58 84.1515 265.489 86.6364C262.398 89.1212 260.11 92.3788 258.625 96.4091C257.14 100.439 256.398 104.788 256.398 109.455C256.398 114.121 257.14 118.455 258.625 122.455C260.11 126.455 262.398 129.682 265.489 132.136C268.58 134.591 272.519 135.818 277.307 135.818ZM336.045 102V144H325.318V74.1818H335.682V85.0909H336.591C338.227 81.5455 340.712 78.697 344.045 76.5455C347.379 74.3636 351.682 73.2727 356.955 73.2727C361.682 73.2727 365.818 74.2424 369.364 76.1818C372.909 78.0909 375.667 81 377.636 84.9091C379.606 88.7879 380.591 93.697 380.591 99.6364V144H369.864V100.364C369.864 94.8788 368.439 90.6061 365.591 87.5455C362.742 84.4545 358.833 82.9091 353.864 82.9091C350.439 82.9091 347.379 83.6515 344.682 85.1364C342.015 86.6212 339.909 88.7879 338.364 91.6364C336.818 94.4848 336.045 97.9394 336.045 102ZM449.648 89.8182L440.011 92.5455C439.405 90.9394 438.511 89.3788 437.33 87.8636C436.178 86.3182 434.602 85.0455 432.602 84.0455C430.602 83.0455 428.042 82.5455 424.92 82.5455C420.648 82.5455 417.087 83.5303 414.239 85.5C411.42 87.4394 410.011 89.9091 410.011 92.9091C410.011 95.5758 410.981 97.6818 412.92 99.2273C414.86 100.773 417.89 102.061 422.011 103.091L432.375 105.636C438.617 107.152 443.269 109.47 446.33 112.591C449.39 115.682 450.92 119.667 450.92 124.545C450.92 128.545 449.769 132.121 447.466 135.273C445.193 138.424 442.011 140.909 437.92 142.727C433.83 144.545 429.072 145.455 423.648 145.455C416.527 145.455 410.633 143.909 405.966 140.818C401.299 137.727 398.345 133.212 397.102 127.273L407.284 124.727C408.254 128.485 410.087 131.303 412.784 133.182C415.511 135.061 419.072 136 423.466 136C428.466 136 432.436 134.939 435.375 132.818C438.345 130.667 439.83 128.091 439.83 125.091C439.83 122.667 438.981 120.636 437.284 119C435.587 117.333 432.981 116.091 429.466 115.273L417.83 112.545C411.436 111.03 406.739 108.682 403.739 105.5C400.769 102.288 399.284 98.2727 399.284 93.4545C399.284 89.5151 400.39 86.0303 402.602 83C404.845 79.9697 407.89 77.5909 411.739 75.8636C415.617 74.1364 420.011 73.2727 424.92 73.2727C431.83 73.2727 437.254 74.7879 441.193 77.8182C445.163 80.8485 447.981 84.8485 449.648 89.8182ZM511.068 115.455V74.1818H521.795V144H511.068V132.182H510.341C508.705 135.727 506.159 138.742 502.705 141.227C499.25 143.682 494.886 144.909 489.614 144.909C485.25 144.909 481.371 143.955 477.977 142.045C474.583 140.106 471.917 137.197 469.977 133.318C468.038 129.409 467.068 124.485 467.068 118.545V74.1818H477.795V117.818C477.795 122.909 479.22 126.97 482.068 130C484.947 133.03 488.614 134.545 493.068 134.545C495.735 134.545 498.447 133.864 501.205 132.5C503.992 131.136 506.326 129.045 508.205 126.227C510.114 123.409 511.068 119.818 511.068 115.455ZM552.17 50.9091V144H541.443V50.9091H552.17ZM186.182 229.182V238.273H150V229.182H186.182ZM160.545 212.455H171.273V279C171.273 282.03 171.712 284.303 172.591 285.818C173.5 287.303 174.652 288.303 176.045 288.818C177.47 289.303 178.97 289.545 180.545 289.545C181.727 289.545 182.697 289.485 183.455 289.364C184.212 289.212 184.818 289.091 185.273 289L187.455 298.636C186.727 298.909 185.712 299.182 184.409 299.455C183.106 299.758 181.455 299.909 179.455 299.909C176.424 299.909 173.455 299.258 170.545 297.955C167.667 296.652 165.273 294.667 163.364 292C161.485 289.333 160.545 285.97 160.545 281.909V212.455ZM202.318 299V229.182H213.045V299H202.318ZM207.773 217.545C205.682 217.545 203.879 216.833 202.364 215.409C200.879 213.985 200.136 212.273 200.136 210.273C200.136 208.273 200.879 206.561 202.364 205.136C203.879 203.712 205.682 203 207.773 203C209.864 203 211.652 203.712 213.136 205.136C214.652 206.561 215.409 208.273 215.409 210.273C215.409 212.273 214.652 213.985 213.136 215.409C211.652 216.833 209.864 217.545 207.773 217.545ZM243.42 257V299H232.693V229.182H243.057V240.091H243.966C245.602 236.545 248.087 233.697 251.42 231.545C254.754 229.364 259.057 228.273 264.33 228.273C269.057 228.273 273.193 229.242 276.739 231.182C280.284 233.091 283.042 236 285.011 239.909C286.981 243.788 287.966 248.697 287.966 254.636V299H277.239V255.364C277.239 249.879 275.814 245.606 272.966 242.545C270.117 239.455 266.208 237.909 261.239 237.909C257.814 237.909 254.754 238.652 252.057 240.136C249.39 241.621 247.284 243.788 245.739 246.636C244.193 249.485 243.42 252.939 243.42 257ZM335.75 326.636C330.568 326.636 326.114 325.97 322.386 324.636C318.659 323.333 315.553 321.606 313.068 319.455C310.614 317.333 308.659 315.061 307.205 312.636L315.75 306.636C316.72 307.909 317.947 309.364 319.432 311C320.917 312.667 322.947 314.106 325.523 315.318C328.129 316.561 331.538 317.182 335.75 317.182C341.386 317.182 346.038 315.818 349.705 313.091C353.371 310.364 355.205 306.091 355.205 300.273V286.091H354.295C353.508 287.364 352.386 288.939 350.932 290.818C349.508 292.667 347.447 294.318 344.75 295.773C342.083 297.197 338.477 297.909 333.932 297.909C328.295 297.909 323.235 296.576 318.75 293.909C314.295 291.242 310.765 287.364 308.159 282.273C305.583 277.182 304.295 271 304.295 263.727C304.295 256.576 305.553 250.348 308.068 245.045C310.583 239.712 314.083 235.591 318.568 232.682C323.053 229.742 328.235 228.273 334.114 228.273C338.659 228.273 342.265 229.03 344.932 230.545C347.629 232.03 349.689 233.727 351.114 235.636C352.568 237.515 353.689 239.061 354.477 240.273H355.568V229.182H365.932V301C365.932 307 364.568 311.879 361.841 315.636C359.144 319.424 355.508 322.197 350.932 323.955C346.386 325.742 341.326 326.636 335.75 326.636ZM335.386 288.273C339.689 288.273 343.326 287.288 346.295 285.318C349.265 283.348 351.523 280.515 353.068 276.818C354.614 273.121 355.386 268.697 355.386 263.545C355.386 258.515 354.629 254.076 353.114 250.227C351.598 246.379 349.356 243.364 346.386 241.182C343.417 239 339.75 237.909 335.386 237.909C330.841 237.909 327.053 239.061 324.023 241.364C321.023 243.667 318.765 246.758 317.25 250.636C315.765 254.515 315.023 258.818 315.023 263.545C315.023 268.394 315.78 272.682 317.295 276.409C318.841 280.106 321.114 283.015 324.114 285.136C327.144 287.227 330.902 288.273 335.386 288.273Z" fill="black"/>
<path d="M883.5 1225.52H676.062V1215.1H883.5C931.794 1215.1 971.083 1175.81 971.083 1127.52V98.687C971.083 50.394 931.794 11.105 883.5 11.105H98.062C49.768 11.105 10.479 50.394 10.479 98.687V1127.52C10.479 1175.81 49.768 1215.1 98.062 1215.1H305.5V1225.52H98.062C44.025 1225.52 0.0620117 1181.56 0.0620117 1127.52V98.687C0.0620117 44.651 44.025 0.687988 98.062 0.687988H883.5C937.538 0.687988 981.5 44.651 981.5 98.687V1127.52C981.5 1181.56 937.538 1225.52 883.5 1225.52Z" fill="#855CA6"/>
<path d="M490.776 1399.59C593.175 1399.59 676.186 1316.58 676.186 1214.18C676.186 1111.78 593.175 1028.77 490.776 1028.77C388.377 1028.77 305.366 1111.78 305.366 1214.18C305.366 1316.58 388.377 1399.59 490.776 1399.59Z" fill="#855CA6"/>
<path d="M598.712 1205.18H591.42C590.585 1202.52 589.521 1199.95 588.228 1197.48L593.387 1192.32C594.681 1191.03 594.681 1188.93 593.387 1187.64L577.957 1172.21C576.715 1170.97 574.515 1170.97 573.273 1172.21L568.114 1177.37C565.642 1176.08 563.073 1175.01 560.412 1174.17V1166.88C560.412 1165.05 558.93 1163.57 557.1 1163.57H535.285C533.454 1163.57 531.973 1165.05 531.973 1166.88V1174.19C530.408 1174.68 528.86 1175.19 527.367 1175.84V1135.18C527.367 1133.35 525.885 1131.86 524.055 1131.86H502.803V1123.56C502.803 1121.72 501.322 1120.24 499.491 1120.24H439.764C437.933 1120.24 436.452 1121.72 436.452 1123.56V1131.86H415.213C413.382 1131.86 411.901 1133.35 411.901 1135.18V1289.59C411.901 1291.42 413.383 1292.9 415.213 1292.9H524.056C525.887 1292.9 527.368 1291.42 527.368 1289.59V1262.95C528.897 1263.61 530.432 1264.14 531.974 1264.62V1271.92C531.974 1273.75 533.456 1275.24 535.286 1275.24H557.1C558.931 1275.24 560.412 1273.75 560.412 1271.92V1264.63C563.069 1263.8 565.638 1262.73 568.113 1261.44L573.274 1266.6C573.921 1267.24 574.769 1267.57 575.616 1267.57C576.463 1267.57 577.311 1267.24 577.958 1266.6L593.388 1251.17C594.009 1250.55 594.358 1249.71 594.358 1248.83C594.358 1247.95 594.009 1247.11 593.388 1246.48L588.229 1241.33C589.523 1238.85 590.588 1236.28 591.422 1233.62H598.713C600.544 1233.62 602.025 1232.14 602.025 1230.31V1208.49C602.025 1206.67 600.543 1205.18 598.712 1205.18ZM536.618 1196.99C536.712 1196.95 536.772 1196.87 536.861 1196.82C536.953 1196.79 537.052 1196.8 537.142 1196.77C542.887 1194.46 549.492 1194.46 555.237 1196.77C555.263 1196.78 555.289 1196.77 555.315 1196.78C555.499 1196.86 555.742 1196.97 555.806 1196.98C561.493 1199.42 566.144 1204.1 568.823 1210.39C569.955 1213.1 570.557 1216.21 570.557 1219.38C570.557 1222.64 569.975 1225.69 568.571 1229.01C566.151 1234.66 561.487 1239.35 555.173 1242.03C549.661 1244.32 543.269 1244.52 536.618 1241.84C533.068 1240.32 529.91 1237.88 527.366 1234.79V1204.11C529.778 1201.07 532.904 1198.57 536.618 1196.99ZM496.177 1126.87V1135.12C496.177 1135.14 496.164 1135.16 496.164 1135.18C496.164 1135.2 496.177 1135.22 496.177 1135.24V1143.46H443.075V1135.31C443.077 1135.26 443.101 1135.22 443.101 1135.18C443.101 1135.13 443.077 1135.1 443.075 1135.05V1126.87H496.177V1126.87ZM520.742 1286.28H418.523V1138.49H436.45V1146.78C436.45 1148.61 437.932 1150.09 439.762 1150.09H499.489C501.32 1150.09 502.801 1148.61 502.801 1146.78V1138.49H520.741L520.742 1286.28ZM595.4 1227H589.041C588.953 1227 588.879 1227.05 588.793 1227.05C588.559 1227.07 588.344 1227.12 588.123 1227.19C587.928 1227.24 587.741 1227.3 587.563 1227.39C587.363 1227.49 587.193 1227.62 587.017 1227.76C586.859 1227.88 586.709 1228 586.576 1228.15C586.435 1228.31 586.331 1228.49 586.222 1228.68C586.109 1228.87 586.009 1229.06 585.937 1229.28C585.911 1229.36 585.852 1229.42 585.832 1229.5C584.868 1233.29 583.367 1236.92 581.355 1240.29C581.31 1240.37 581.309 1240.45 581.271 1240.53C581.17 1240.73 581.108 1240.94 581.051 1241.15C580.997 1241.36 580.946 1241.56 580.932 1241.77C580.918 1241.98 580.941 1242.17 580.966 1242.38C580.993 1242.6 581.021 1242.8 581.088 1243.01C581.151 1243.2 581.246 1243.37 581.345 1243.55C581.455 1243.75 581.569 1243.94 581.721 1244.12C581.776 1244.18 581.797 1244.27 581.859 1244.33L586.362 1248.83L575.616 1259.57L571.113 1255.07C571.052 1255.01 570.971 1254.99 570.907 1254.93C570.728 1254.78 570.537 1254.66 570.334 1254.55C570.154 1254.46 569.982 1254.36 569.79 1254.3C569.583 1254.23 569.377 1254.2 569.16 1254.18C568.954 1254.15 568.756 1254.13 568.549 1254.15C568.34 1254.16 568.143 1254.21 567.938 1254.26C567.72 1254.32 567.514 1254.39 567.309 1254.49C567.234 1254.53 567.15 1254.53 567.077 1254.57C563.706 1256.58 560.077 1258.09 556.286 1259.05C556.2 1259.07 556.139 1259.13 556.056 1259.16C555.84 1259.23 555.652 1259.33 555.459 1259.44C555.276 1259.55 555.101 1259.65 554.944 1259.79C554.785 1259.93 554.661 1260.08 554.53 1260.25C554.398 1260.42 554.274 1260.58 554.177 1260.78C554.084 1260.96 554.028 1261.15 553.97 1261.35C553.907 1261.57 553.855 1261.78 553.837 1262.01C553.83 1262.1 553.787 1262.17 553.787 1262.26V1268.62H538.596V1262.26C538.596 1262.21 538.573 1262.18 538.571 1262.14C538.558 1261.78 538.487 1261.45 538.367 1261.12C538.337 1261.04 538.316 1260.96 538.281 1260.89C538.14 1260.58 537.952 1260.31 537.725 1260.06C537.663 1259.99 537.61 1259.92 537.543 1259.86C537.318 1259.65 537.062 1259.49 536.78 1259.34C536.662 1259.28 536.551 1259.22 536.425 1259.17C536.317 1259.13 536.233 1259.06 536.118 1259.03C533.195 1258.3 530.263 1257.09 527.365 1255.61V1243.97C529.524 1245.62 531.936 1247.02 534.637 1248.14C538.208 1249.63 542.09 1250.39 546.179 1250.39C550.268 1250.39 554.15 1249.63 557.268 1248.3C557.63 1248.2 557.902 1248.11 558.445 1247.92C565.781 1244.7 571.539 1238.91 574.347 1232.19C574.476 1232 574.852 1231.2 574.942 1230.99C576.424 1227.42 577.18 1223.52 577.18 1219.38C577.18 1215.29 576.423 1211.4 575.032 1208.1C574.98 1207.92 574.818 1207.56 574.663 1207.23V1207.22C571.538 1199.84 565.767 1194.05 558.133 1190.79L557.926 1190.71C557.881 1190.69 557.833 1190.7 557.788 1190.68C557.757 1190.66 557.738 1190.63 557.706 1190.62C550.383 1187.68 541.959 1187.69 534.7 1190.61L533.963 1190.91C533.949 1190.92 533.943 1190.93 533.929 1190.94C531.562 1191.96 529.368 1193.26 527.364 1194.79V1183.2C530.128 1181.76 533.033 1180.57 536.117 1179.8C536.249 1179.76 536.347 1179.68 536.471 1179.63C536.556 1179.6 536.631 1179.55 536.713 1179.51C537.035 1179.36 537.322 1179.18 537.571 1178.94C537.614 1178.89 537.648 1178.85 537.689 1178.81C537.939 1178.54 538.141 1178.25 538.291 1177.91C538.32 1177.85 538.337 1177.79 538.361 1177.72C538.486 1177.39 538.559 1177.05 538.571 1176.68C538.573 1176.64 538.596 1176.6 538.596 1176.56V1170.19H553.787V1176.56C553.787 1176.65 553.83 1176.72 553.837 1176.81C553.854 1177.04 553.906 1177.25 553.97 1177.46C554.028 1177.66 554.084 1177.85 554.177 1178.04C554.274 1178.23 554.398 1178.39 554.53 1178.56C554.66 1178.73 554.785 1178.89 554.944 1179.03C555.1 1179.16 555.276 1179.26 555.459 1179.37C555.652 1179.48 555.841 1179.59 556.056 1179.66C556.139 1179.69 556.2 1179.75 556.286 1179.77C560.084 1180.73 563.713 1182.24 567.071 1184.24C567.133 1184.28 567.204 1184.26 567.267 1184.3C568.199 1184.78 569.277 1184.8 570.217 1184.34C570.362 1184.27 570.475 1184.17 570.609 1184.08C570.777 1183.96 570.966 1183.89 571.115 1183.74L575.618 1179.24L586.364 1189.98L581.861 1194.48C581.798 1194.55 581.776 1194.63 581.72 1194.7C581.571 1194.87 581.459 1195.06 581.35 1195.25C581.249 1195.44 581.152 1195.61 581.089 1195.81C581.021 1196.01 580.994 1196.22 580.967 1196.43C580.942 1196.64 580.919 1196.84 580.933 1197.05C580.946 1197.26 580.999 1197.46 581.054 1197.67C581.11 1197.88 581.171 1198.08 581.27 1198.28C581.31 1198.36 581.311 1198.45 581.357 1198.53C583.363 1201.89 584.87 1205.52 585.834 1209.31C585.848 1209.37 585.905 1209.39 585.922 1209.45C586.112 1210.07 586.459 1210.6 586.948 1211.01C587.036 1211.08 587.123 1211.13 587.218 1211.19C587.749 1211.55 588.353 1211.81 589.044 1211.81H595.403V1227H595.4Z" fill="white"/>
<path d="M451.744 1203.36H431.391C429.56 1203.36 428.079 1204.84 428.079 1206.68V1223.92C428.079 1225.75 429.561 1227.23 431.391 1227.23H451.744C453.575 1227.23 455.056 1225.75 455.056 1223.92V1206.68C455.057 1204.84 453.575 1203.36 451.744 1203.36ZM448.432 1220.61H434.704V1209.99H448.432V1220.61Z" fill="white"/>
<path d="M509.983 1211.98H466.165C464.334 1211.98 462.853 1213.47 462.853 1215.3C462.853 1217.13 464.335 1218.61 466.165 1218.61H509.983C511.814 1218.61 513.295 1217.13 513.295 1215.3C513.295 1213.46 511.814 1211.98 509.983 1211.98Z" fill="white"/>
<path d="M451.744 1165.13H431.391C429.56 1165.13 428.079 1166.61 428.079 1168.44V1185.69C428.079 1187.52 429.561 1189 431.391 1189H451.744C453.575 1189 455.056 1187.52 455.056 1185.69V1168.44C455.057 1166.61 453.575 1165.13 451.744 1165.13ZM448.432 1182.38H434.704V1171.76H448.432V1182.38Z" fill="white"/>
<path d="M466.165 1173.75C464.334 1173.75 462.853 1175.23 462.853 1177.06C462.853 1178.89 464.335 1180.38 466.165 1180.38H509.983C511.814 1180.38 513.295 1178.89 513.295 1177.06C513.295 1175.23 511.813 1173.75 509.983 1173.75H466.165Z" fill="white"/>
<path d="M451.744 1240.48H431.391C429.56 1240.48 428.079 1241.96 428.079 1243.79V1261.04C428.079 1262.87 429.561 1264.35 431.391 1264.35H451.744C453.575 1264.35 455.056 1262.87 455.056 1261.04V1243.79C455.057 1241.96 453.575 1240.48 451.744 1240.48ZM448.432 1257.73H434.704V1247.11H448.432V1257.73Z" fill="white"/>
<path d="M509.983 1249.1H466.165C464.334 1249.1 462.853 1250.58 462.853 1252.41C462.853 1254.24 464.335 1255.73 466.165 1255.73H509.983C511.814 1255.73 513.295 1254.24 513.295 1252.41C513.295 1250.58 511.814 1249.1 509.983 1249.1Z" fill="white"/>
</svg>
